<svg width="114" height="34" viewBox="0 0 114 34" fill="none" xmlns="http://www.w3.org/2000/svg">
<path d="M17.3333 34C7.94555 34 0.333328 26.3878 0.333328 17H17.3333V34Z" fill="#703BF7"/>
<path d="M0.333328 0C9.72111 0 17.3333 7.61222 17.3333 17H0.333328V0Z" fill="#703BF7"/>
<path d="M17.3333 34C26.7211 34 34.3333 26.3878 34.3333 17H17.3333V34Z" fill="#703BF7"/>
<path d="M34.3333 17C34.3333 7.61222 26.7211 0 17.3333 0V17H34.3333Z" fill="#703BF7"/>
<path d="M111.414 24.6927V19.0212C111.414 18.3661 111.203 17.8269 110.78 17.4037C110.37 16.9806 109.838 16.769 109.183 16.769C108.746 16.769 108.357 16.8646 108.016 17.0557C107.674 17.2468 107.408 17.5129 107.217 17.8542C107.026 18.1954 106.93 18.5844 106.93 19.0212L106.05 18.5298C106.05 17.7791 106.214 17.1171 106.541 16.5438C106.869 15.9569 107.32 15.4996 107.893 15.172C108.48 14.8308 109.135 14.6602 109.858 14.6602C110.595 14.6602 111.251 14.8513 111.824 15.2334C112.397 15.602 112.848 16.0865 113.175 16.6871C113.503 17.2741 113.667 17.8883 113.667 18.5298V24.6927H111.414ZM104.678 24.6927V14.8649H106.93V24.6927H104.678Z" fill="white"/>
<path d="M99.9002 24.6927V14.8649H102.152V24.6927H99.9002ZM101.026 13.0632C100.644 13.0632 100.323 12.9335 100.064 12.6742C99.8183 12.4148 99.6954 12.094 99.6954 11.7119C99.6954 11.3297 99.8183 11.0089 100.064 10.7496C100.323 10.4902 100.644 10.3605 101.026 10.3605C101.422 10.3605 101.743 10.4902 101.989 10.7496C102.234 11.0089 102.357 11.3297 102.357 11.7119C102.357 12.094 102.234 12.4148 101.989 12.6742C101.743 12.9335 101.422 13.0632 101.026 13.0632Z" fill="white"/>
<path d="M93.5083 24.8974C92.5255 24.8974 91.6383 24.679 90.8466 24.2422C90.0686 23.7918 89.4475 23.1776 88.9834 22.3995C88.533 21.6215 88.3078 20.7479 88.3078 19.7788C88.3078 18.8097 88.533 17.9429 88.9834 17.1785C89.4339 16.4005 90.0413 15.7863 90.8057 15.3358C91.5837 14.8854 92.4436 14.6602 93.3855 14.6602C94.3 14.6602 95.1053 14.8717 95.8015 15.2949C96.5112 15.718 97.0641 16.2981 97.4599 17.0352C97.8694 17.7723 98.0741 18.6117 98.0741 19.5536C98.0741 19.7174 98.0605 19.888 98.0332 20.0654C98.0195 20.2292 97.9922 20.4135 97.9513 20.6183H89.8843V18.7755H96.7842L95.9448 19.5126C95.9175 18.912 95.8015 18.407 95.5967 17.9975C95.392 17.588 95.0985 17.2741 94.7163 17.0557C94.3478 16.8373 93.8905 16.7281 93.3445 16.7281C92.7712 16.7281 92.273 16.8509 91.8499 17.0966C91.4267 17.3423 91.0991 17.6904 90.8671 18.1408C90.6351 18.5776 90.519 19.1031 90.519 19.7174C90.519 20.3316 90.6419 20.8708 90.8876 21.3349C91.1333 21.7989 91.4813 22.1607 91.9318 22.42C92.3822 22.6657 92.9009 22.7886 93.4878 22.7886C93.9929 22.7886 94.457 22.6998 94.8801 22.5224C95.3169 22.3449 95.6854 22.0856 95.9857 21.7443L97.419 23.198C96.9412 23.7577 96.3611 24.1808 95.6786 24.4675C94.9961 24.7541 94.2727 24.8974 93.5083 24.8974Z" fill="white"/>
<path d="M82.9793 24.6927V10.77H85.2315V24.6927H82.9793ZM80.6247 16.9124V14.8649H87.5861V16.9124H80.6247Z" fill="white"/>
<path d="M73.7232 24.8974C72.836 24.8974 72.0306 24.6722 71.3072 24.2218C70.5974 23.7713 70.031 23.1639 69.6078 22.3995C69.1983 21.6215 68.9936 20.7547 68.9936 19.7993C68.9936 18.8301 69.1983 17.9634 69.6078 17.199C70.031 16.421 70.5974 15.8067 71.3072 15.3563C72.0306 14.8922 72.836 14.6602 73.7232 14.6602C74.4739 14.6602 75.136 14.824 75.7092 15.1515C76.2962 15.4655 76.7603 15.9023 77.1015 16.4619C77.4428 17.0216 77.6134 17.6563 77.6134 18.366V21.1915C77.6134 21.9013 77.4428 22.536 77.1015 23.0957C76.7739 23.6553 76.3167 24.0989 75.7297 24.4265C75.1428 24.7405 74.4739 24.8974 73.7232 24.8974ZM74.0918 22.7681C74.9244 22.7681 75.5932 22.4883 76.0983 21.9286C76.6169 21.369 76.8763 20.6524 76.8763 19.7788C76.8763 19.1919 76.7603 18.6732 76.5282 18.2227C76.2962 17.7723 75.9686 17.4242 75.5454 17.1785C75.136 16.9192 74.6514 16.7895 74.0918 16.7895C73.5458 16.7895 73.0612 16.9192 72.6381 17.1785C72.2286 17.4242 71.901 17.7723 71.6553 18.2227C71.4232 18.6732 71.3072 19.1919 71.3072 19.7788C71.3072 20.3657 71.4232 20.8844 71.6553 21.3349C71.901 21.7853 72.2286 22.1402 72.6381 22.3995C73.0612 22.6452 73.5458 22.7681 74.0918 22.7681ZM76.733 24.6927V22.0515L77.122 19.6559L76.733 17.2809V14.8649H78.9852V24.6927H76.733Z" fill="white"/>
<path d="M63.644 24.6927V10.77H65.8962V24.6927H63.644ZM61.2894 16.9124V14.8649H68.2508V16.9124H61.2894Z" fill="white"/>
<path d="M56.5664 24.8974C56.0204 24.8974 55.4949 24.8292 54.9899 24.6927C54.4848 24.5425 54.0207 24.3378 53.5976 24.0785C53.1745 23.8055 52.8059 23.4779 52.492 23.0957L53.9252 21.6625C54.2664 22.0583 54.6555 22.3586 55.0922 22.5633C55.5427 22.7544 56.0477 22.85 56.6074 22.85C57.1124 22.85 57.4946 22.7749 57.7539 22.6248C58.0133 22.4746 58.143 22.2562 58.143 21.9696C58.143 21.6693 58.0201 21.4372 57.7744 21.2734C57.5287 21.1096 57.208 20.9731 56.8121 20.8639C56.4299 20.7411 56.0204 20.6182 55.5836 20.4954C55.1605 20.3726 54.751 20.2088 54.3552 20.004C53.973 19.7856 53.659 19.4921 53.4133 19.1236C53.1676 18.7551 53.0448 18.2773 53.0448 17.6904C53.0448 17.0625 53.1881 16.5233 53.4748 16.0729C53.7751 15.6225 54.1914 15.2744 54.7237 15.0287C55.2697 14.783 55.9181 14.6602 56.6688 14.6602C57.4605 14.6602 58.1566 14.8035 58.7572 15.0901C59.3714 15.3631 59.8833 15.7794 60.2928 16.3391L58.8596 17.7723C58.5729 17.4174 58.2453 17.1512 57.8768 16.9738C57.5082 16.7963 57.0851 16.7076 56.6074 16.7076C56.1569 16.7076 55.8089 16.7759 55.5632 16.9124C55.3175 17.0489 55.1946 17.2468 55.1946 17.5061C55.1946 17.7791 55.3175 17.9907 55.5632 18.1408C55.8089 18.291 56.1228 18.4206 56.505 18.5298C56.9008 18.639 57.3103 18.7619 57.7335 18.8984C58.1703 19.0212 58.5797 19.1987 58.9619 19.4307C59.3578 19.6491 59.6786 19.9494 59.9242 20.3316C60.1699 20.7001 60.2928 21.1847 60.2928 21.7853C60.2928 22.7408 59.9584 23.4983 59.2895 24.058C58.6207 24.6176 57.713 24.8974 56.5664 24.8974Z" fill="white"/>
<path d="M41.5823 24.6927V10.3605H43.9369V24.6927H41.5823ZM43.1998 24.6927V22.5429H51.2258V24.6927H43.1998ZM43.1998 18.407V16.3391H50.5297V18.407H43.1998ZM43.1998 12.5104V10.3605H51.1235V12.5104H43.1998Z" fill="white"/>
</svg>
