<svg width="94" height="28" viewBox="0 0 94 28" fill="none" xmlns="http://www.w3.org/2000/svg">
<path d="M14.0001 28C6.26895 28 6.10352e-05 21.7311 6.10352e-05 14H14.0001V28Z" fill="#703BF7"/>
<path d="M6.10352e-05 0C7.73117 0 14.0001 6.26889 14.0001 14H6.10352e-05V0Z" fill="#703BF7"/>
<path d="M14.0001 28C21.7312 28 28.0001 21.7311 28.0001 14H14.0001V28Z" fill="#703BF7"/>
<path d="M28.0001 14C28.0001 6.26889 21.7312 0 14.0001 0V14H28.0001Z" fill="#703BF7"/>
<path d="M91.4786 20.3352V15.6646C91.4786 15.125 91.3044 14.681 90.9559 14.3325C90.6187 13.9841 90.1803 13.8098 89.6407 13.8098C89.281 13.8098 88.9606 13.8885 88.6796 14.0459C88.3986 14.2033 88.1794 14.4225 88.022 14.7035C87.8647 14.9845 87.786 15.3049 87.786 15.6646L87.0609 15.2599C87.0609 14.6417 87.1958 14.0965 87.4656 13.6244C87.7354 13.141 88.1063 12.7644 88.5784 12.4947C89.0618 12.2136 89.6014 12.0731 90.1971 12.0731C90.8042 12.0731 91.3437 12.2305 91.8158 12.5452C92.288 12.8487 92.6589 13.2478 92.9287 13.7424C93.1985 14.2258 93.3334 14.7316 93.3334 15.2599V20.3352H91.4786ZM85.9312 20.3352V12.2417H87.786V20.3352H85.9312Z" fill="white"/>
<path d="M81.9962 20.3352V12.2417H83.851V20.3352H81.9962ZM82.9236 10.7579C82.6089 10.7579 82.3447 10.6511 82.1311 10.4376C81.9288 10.224 81.8276 9.95983 81.8276 9.64508C81.8276 9.33033 81.9288 9.06617 82.1311 8.85259C82.3447 8.63902 82.6089 8.53223 82.9236 8.53223C83.2496 8.53223 83.5138 8.63902 83.7161 8.85259C83.9184 9.06617 84.0196 9.33033 84.0196 9.64508C84.0196 9.95983 83.9184 10.224 83.7161 10.4376C83.5138 10.6511 83.2496 10.7579 82.9236 10.7579Z" fill="white"/>
<path d="M76.7324 20.5038C75.923 20.5038 75.1924 20.324 74.5404 19.9643C73.8997 19.5933 73.3882 19.0875 73.006 18.4467C72.6351 17.806 72.4496 17.0866 72.4496 16.2885C72.4496 15.4904 72.6351 14.7766 73.006 14.1471C73.377 13.5063 73.8772 13.0005 74.5067 12.6295C75.1474 12.2586 75.8556 12.0731 76.6312 12.0731C77.3844 12.0731 78.0476 12.2474 78.6209 12.5958C79.2054 12.9443 79.6606 13.422 79.9866 14.029C80.3239 14.6361 80.4925 15.3274 80.4925 16.103C80.4925 16.2379 80.4812 16.3784 80.4587 16.5245C80.4475 16.6594 80.425 16.8112 80.3913 16.9798H73.7479V15.4623H79.4302L78.7389 16.0693C78.7164 15.5747 78.6209 15.1588 78.4522 14.8215C78.2836 14.4843 78.0419 14.2258 77.7272 14.0459C77.4237 13.866 77.0471 13.7761 76.5975 13.7761C76.1254 13.7761 75.7151 13.8773 75.3666 14.0796C75.0181 14.282 74.7484 14.5686 74.5573 14.9396C74.3662 15.2993 74.2706 15.732 74.2706 16.2379C74.2706 16.7437 74.3718 17.1877 74.5741 17.5699C74.7765 17.9521 75.0631 18.25 75.4341 18.4636C75.805 18.6659 76.2322 18.7671 76.7155 18.7671C77.1314 18.7671 77.5136 18.694 77.8621 18.5479C78.2218 18.4018 78.5253 18.1882 78.7726 17.9072L79.9529 19.1043C79.5595 19.5652 79.0817 19.9137 78.5197 20.1497C77.9576 20.3858 77.3619 20.5038 76.7324 20.5038Z" fill="white"/>
<path d="M68.0614 20.3352V8.86945H69.9162V20.3352H68.0614ZM66.1224 13.9279V12.2417H71.8552V13.9279H66.1224Z" fill="white"/>
<path d="M60.4388 20.5038C59.7081 20.5038 59.0449 20.3183 58.4491 19.9474C57.8646 19.5764 57.3981 19.0762 57.0496 18.4467C56.7124 17.806 56.5438 17.0922 56.5438 16.3053C56.5438 15.5072 56.7124 14.7934 57.0496 14.1639C57.3981 13.5232 57.8646 13.0174 58.4491 12.6464C59.0449 12.2642 59.7081 12.0731 60.4388 12.0731C61.057 12.0731 61.6022 12.208 62.0743 12.4778C62.5577 12.7363 62.9399 13.096 63.2209 13.5569C63.5019 14.0178 63.6424 14.5405 63.6424 15.125V17.4519C63.6424 18.0364 63.5019 18.5591 63.2209 19.02C62.9511 19.4809 62.5746 19.8462 62.0912 20.116C61.6078 20.3745 61.057 20.5038 60.4388 20.5038ZM60.7423 18.7502C61.428 18.7502 61.9788 18.5198 62.3947 18.0589C62.8219 17.598 63.0354 17.0079 63.0354 16.2885C63.0354 15.8051 62.9399 15.378 62.7488 15.007C62.5577 14.6361 62.2879 14.3494 61.9394 14.1471C61.6022 13.9335 61.2032 13.8267 60.7423 13.8267C60.2926 13.8267 59.8936 13.9335 59.5451 14.1471C59.2079 14.3494 58.9381 14.6361 58.7358 15.007C58.5447 15.378 58.4491 15.8051 58.4491 16.2885C58.4491 16.7718 58.5447 17.199 58.7358 17.5699C58.9381 17.9409 59.2079 18.2331 59.5451 18.4467C59.8936 18.6491 60.2926 18.7502 60.7423 18.7502ZM62.9174 20.3352V18.1601L63.2378 16.1873L62.9174 14.2314V12.2417H64.7722V20.3352H62.9174Z" fill="white"/>
<path d="M52.1382 20.3352V8.86945H53.993V20.3352H52.1382ZM50.1992 13.9279V12.2417H55.9321V13.9279H50.1992Z" fill="white"/>
<path d="M46.3096 20.5038C45.86 20.5038 45.4272 20.4476 45.0113 20.3352C44.5954 20.2116 44.2132 20.0429 43.8647 19.8294C43.5163 19.6045 43.2128 19.3348 42.9542 19.02L44.1345 17.8397C44.4155 18.1657 44.7359 18.413 45.0956 18.5816C45.4666 18.739 45.8825 18.8177 46.3434 18.8177C46.7593 18.8177 47.074 18.7559 47.2876 18.6322C47.5012 18.5086 47.608 18.3287 47.608 18.0926C47.608 17.8453 47.5068 17.6542 47.3045 17.5193C47.1021 17.3845 46.838 17.272 46.512 17.1821C46.1972 17.081 45.86 16.9798 45.5003 16.8786C45.1518 16.7774 44.8146 16.6426 44.4886 16.4739C44.1739 16.2941 43.9153 16.0524 43.713 15.7489C43.5106 15.4454 43.4095 15.052 43.4095 14.5686C43.4095 14.0515 43.5275 13.6075 43.7636 13.2366C44.0109 12.8656 44.3537 12.579 44.7921 12.3766C45.2418 12.1743 45.7757 12.0731 46.3939 12.0731C47.0459 12.0731 47.6192 12.1911 48.1138 12.4272C48.6197 12.652 49.0412 12.9949 49.3784 13.4558L48.1981 14.6361C47.9621 14.3438 47.6923 14.1246 47.3888 13.9785C47.0853 13.8323 46.7368 13.7593 46.3434 13.7593C45.9724 13.7593 45.6858 13.8155 45.4834 13.9279C45.2811 14.0403 45.1799 14.2033 45.1799 14.4169C45.1799 14.6417 45.2811 14.8159 45.4834 14.9396C45.6858 15.0632 45.9443 15.17 46.2591 15.2599C46.585 15.3499 46.9223 15.451 47.2707 15.5634C47.6305 15.6646 47.9677 15.8107 48.2824 16.0018C48.6084 16.1817 48.8726 16.429 49.0749 16.7437C49.2772 17.0472 49.3784 17.4463 49.3784 17.9409C49.3784 18.7278 49.103 19.3516 48.5522 19.8125C48.0014 20.2734 47.2539 20.5038 46.3096 20.5038Z" fill="white"/>
<path d="M33.9698 20.3352V8.53223H35.9089V20.3352H33.9698ZM35.3019 20.3352V18.5648H41.9115V20.3352H35.3019ZM35.3019 15.1588V13.4558H41.3382V15.1588H35.3019ZM35.3019 10.3027V8.53223H41.8272V10.3027H35.3019Z" fill="white"/>
</svg>
